<svg width="16" height="16" viewBox="0 0 16 16" fill="none" xmlns="http://www.w3.org/2000/svg">
<path d="M14 6.71656C14 11.2085 8 15.0588 8 15.0588C8 15.0588 2 11.2085 2 6.71656C2 5.18483 2.63214 3.71584 3.75736 2.63274C4.88258 1.54964 6.4087 0.941162 8 0.941162C9.5913 0.941162 11.1174 1.54964 12.2426 2.63274C13.3679 3.71584 14 5.18483 14 6.71656Z" stroke="#666666" stroke-linecap="round" stroke-linejoin="round"/>
<path d="M8 8.47064C9.10457 8.47064 10 7.62788 10 6.58829C10 5.54869 9.10457 4.70593 8 4.70593C6.89543 4.70593 6 5.54869 6 6.58829C6 7.62788 6.89543 8.47064 8 8.47064Z" stroke="#666666" stroke-linecap="round" stroke-linejoin="round"/>
</svg>
